<mxfile host="Electron" agent="Mozilla/5.0 (Macintosh; Intel Mac OS X 10_15_7) AppleWebKit/537.36 (KHTML, like Gecko) draw.io/26.2.2 Chrome/134.0.6998.178 Electron/35.1.2 Safari/537.36" version="26.2.2">
  <diagram name="Page-1" id="rE4K0z1xPk73wiiiK15M">
    <mxGraphModel dx="948" dy="618" grid="1" gridSize="10" guides="1" tooltips="1" connect="1" arrows="1" fold="1" page="1" pageScale="1" pageWidth="827" pageHeight="1169" math="0" shadow="0">
      <root>
        <mxCell id="0" />
        <mxCell id="1" parent="0" />
        <mxCell id="g2C7uytByav_Vjs7xRoA-8" style="edgeStyle=orthogonalEdgeStyle;rounded=0;orthogonalLoop=1;jettySize=auto;html=1;entryX=0.5;entryY=0;entryDx=0;entryDy=0;" edge="1" parent="1" source="g2C7uytByav_Vjs7xRoA-1" target="g2C7uytByav_Vjs7xRoA-2">
          <mxGeometry relative="1" as="geometry" />
        </mxCell>
        <mxCell id="g2C7uytByav_Vjs7xRoA-1" value="IDLE" style="rounded=0;whiteSpace=wrap;html=1;" vertex="1" parent="1">
          <mxGeometry x="380" y="90" width="120" height="60" as="geometry" />
        </mxCell>
        <mxCell id="g2C7uytByav_Vjs7xRoA-9" style="edgeStyle=orthogonalEdgeStyle;rounded=0;orthogonalLoop=1;jettySize=auto;html=1;" edge="1" parent="1" source="g2C7uytByav_Vjs7xRoA-2" target="g2C7uytByav_Vjs7xRoA-3">
          <mxGeometry relative="1" as="geometry" />
        </mxCell>
        <mxCell id="g2C7uytByav_Vjs7xRoA-2" value="LAUNCH READ" style="rounded=0;whiteSpace=wrap;html=1;" vertex="1" parent="1">
          <mxGeometry x="380" y="180" width="120" height="60" as="geometry" />
        </mxCell>
        <mxCell id="g2C7uytByav_Vjs7xRoA-10" style="edgeStyle=orthogonalEdgeStyle;rounded=0;orthogonalLoop=1;jettySize=auto;html=1;entryX=0.5;entryY=0;entryDx=0;entryDy=0;" edge="1" parent="1" source="g2C7uytByav_Vjs7xRoA-3" target="g2C7uytByav_Vjs7xRoA-4">
          <mxGeometry relative="1" as="geometry" />
        </mxCell>
        <mxCell id="g2C7uytByav_Vjs7xRoA-3" value="WAIT FOR SWITCH" style="rounded=0;whiteSpace=wrap;html=1;" vertex="1" parent="1">
          <mxGeometry x="380" y="270" width="120" height="60" as="geometry" />
        </mxCell>
        <mxCell id="g2C7uytByav_Vjs7xRoA-11" style="edgeStyle=orthogonalEdgeStyle;rounded=0;orthogonalLoop=1;jettySize=auto;html=1;entryX=0.5;entryY=0;entryDx=0;entryDy=0;" edge="1" parent="1" source="g2C7uytByav_Vjs7xRoA-4" target="g2C7uytByav_Vjs7xRoA-5">
          <mxGeometry relative="1" as="geometry" />
        </mxCell>
        <mxCell id="g2C7uytByav_Vjs7xRoA-4" value="SWITCH BUFFER" style="rounded=0;whiteSpace=wrap;html=1;" vertex="1" parent="1">
          <mxGeometry x="380" y="370" width="120" height="60" as="geometry" />
        </mxCell>
        <mxCell id="g2C7uytByav_Vjs7xRoA-12" style="edgeStyle=orthogonalEdgeStyle;rounded=0;orthogonalLoop=1;jettySize=auto;html=1;entryX=0.5;entryY=0;entryDx=0;entryDy=0;" edge="1" parent="1" source="g2C7uytByav_Vjs7xRoA-5" target="g2C7uytByav_Vjs7xRoA-6">
          <mxGeometry relative="1" as="geometry" />
        </mxCell>
        <mxCell id="g2C7uytByav_Vjs7xRoA-5" value="ASK BUFFER" style="rounded=0;whiteSpace=wrap;html=1;" vertex="1" parent="1">
          <mxGeometry x="380" y="470" width="120" height="60" as="geometry" />
        </mxCell>
        <mxCell id="g2C7uytByav_Vjs7xRoA-13" style="edgeStyle=orthogonalEdgeStyle;rounded=0;orthogonalLoop=1;jettySize=auto;html=1;entryX=0.5;entryY=0;entryDx=0;entryDy=0;" edge="1" parent="1" source="g2C7uytByav_Vjs7xRoA-6" target="g2C7uytByav_Vjs7xRoA-7">
          <mxGeometry relative="1" as="geometry" />
        </mxCell>
        <mxCell id="g2C7uytByav_Vjs7xRoA-6" value="STORE BUFFER ANSWER" style="rounded=0;whiteSpace=wrap;html=1;" vertex="1" parent="1">
          <mxGeometry x="380" y="570" width="120" height="60" as="geometry" />
        </mxCell>
        <mxCell id="g2C7uytByav_Vjs7xRoA-16" style="edgeStyle=orthogonalEdgeStyle;rounded=0;orthogonalLoop=1;jettySize=auto;html=1;entryX=0;entryY=0.5;entryDx=0;entryDy=0;" edge="1" parent="1" source="g2C7uytByav_Vjs7xRoA-7" target="g2C7uytByav_Vjs7xRoA-3">
          <mxGeometry relative="1" as="geometry">
            <Array as="points">
              <mxPoint x="340" y="700" />
              <mxPoint x="340" y="300" />
            </Array>
          </mxGeometry>
        </mxCell>
        <mxCell id="g2C7uytByav_Vjs7xRoA-17" style="edgeStyle=orthogonalEdgeStyle;rounded=0;orthogonalLoop=1;jettySize=auto;html=1;entryX=0;entryY=0.25;entryDx=0;entryDy=0;" edge="1" parent="1" source="g2C7uytByav_Vjs7xRoA-7" target="g2C7uytByav_Vjs7xRoA-1">
          <mxGeometry relative="1" as="geometry">
            <Array as="points">
              <mxPoint x="240" y="710" />
              <mxPoint x="240" y="105" />
            </Array>
          </mxGeometry>
        </mxCell>
        <mxCell id="g2C7uytByav_Vjs7xRoA-19" style="edgeStyle=orthogonalEdgeStyle;rounded=0;orthogonalLoop=1;jettySize=auto;html=1;exitX=0;exitY=0.5;exitDx=0;exitDy=0;entryX=0;entryY=0.5;entryDx=0;entryDy=0;" edge="1" parent="1" source="g2C7uytByav_Vjs7xRoA-7" target="g2C7uytByav_Vjs7xRoA-4">
          <mxGeometry relative="1" as="geometry">
            <Array as="points">
              <mxPoint x="340" y="700" />
              <mxPoint x="340" y="400" />
            </Array>
          </mxGeometry>
        </mxCell>
        <mxCell id="g2C7uytByav_Vjs7xRoA-7" value="DATA READY TO READ" style="rounded=0;whiteSpace=wrap;html=1;" vertex="1" parent="1">
          <mxGeometry x="380" y="670" width="120" height="60" as="geometry" />
        </mxCell>
        <mxCell id="g2C7uytByav_Vjs7xRoA-14" style="edgeStyle=orthogonalEdgeStyle;rounded=0;orthogonalLoop=1;jettySize=auto;html=1;exitX=1;exitY=0.75;exitDx=0;exitDy=0;entryX=1;entryY=0.25;entryDx=0;entryDy=0;" edge="1" parent="1" source="g2C7uytByav_Vjs7xRoA-3" target="g2C7uytByav_Vjs7xRoA-3">
          <mxGeometry relative="1" as="geometry">
            <Array as="points">
              <mxPoint x="540" y="315" />
              <mxPoint x="540" y="285" />
            </Array>
          </mxGeometry>
        </mxCell>
        <mxCell id="g2C7uytByav_Vjs7xRoA-15" style="edgeStyle=orthogonalEdgeStyle;rounded=0;orthogonalLoop=1;jettySize=auto;html=1;exitX=1;exitY=0.75;exitDx=0;exitDy=0;entryX=1;entryY=0.25;entryDx=0;entryDy=0;" edge="1" parent="1" source="g2C7uytByav_Vjs7xRoA-1" target="g2C7uytByav_Vjs7xRoA-1">
          <mxGeometry relative="1" as="geometry">
            <Array as="points">
              <mxPoint x="540" y="135" />
              <mxPoint x="540" y="105" />
            </Array>
          </mxGeometry>
        </mxCell>
        <mxCell id="g2C7uytByav_Vjs7xRoA-18" style="edgeStyle=orthogonalEdgeStyle;rounded=0;orthogonalLoop=1;jettySize=auto;html=1;exitX=1;exitY=0.75;exitDx=0;exitDy=0;entryX=1;entryY=0.25;entryDx=0;entryDy=0;" edge="1" parent="1" source="g2C7uytByav_Vjs7xRoA-7" target="g2C7uytByav_Vjs7xRoA-7">
          <mxGeometry relative="1" as="geometry">
            <Array as="points">
              <mxPoint x="530" y="715" />
              <mxPoint x="530" y="685" />
            </Array>
          </mxGeometry>
        </mxCell>
      </root>
    </mxGraphModel>
  </diagram>
</mxfile>
